<svg width="1249" height="123" viewBox="0 0 1249 123" fill="none" xmlns="http://www.w3.org/2000/svg">
<path d="M18.25 97H0.3125V7.375H18.25V97Z" fill="white"/>
<path d="M118.25 97H101.25V54.5C101.25 53.3333 101.021 52.2292 100.562 51.1875C100.146 50.1458 99.5417 49.2292 98.75 48.4375C97.9583 47.6458 97.0417 47.0417 96 46.625C94.9583 46.1667 93.8542 45.9375 92.6875 45.9375C91.5208 45.9375 90.4167 46.1667 89.375 46.625C88.375 47.0417 87.4792 47.6458 86.6875 48.4375C85.9375 49.2292 85.3333 50.1458 84.875 51.1875C84.4583 52.2292 84.25 53.3333 84.25 54.5V97H67.1875V54.5C67.1875 53.3333 66.9583 52.2292 66.5 51.1875C66.0833 50.1458 65.4792 49.2292 64.6875 48.4375C63.8958 47.6458 62.9792 47.0417 61.9375 46.625C60.8958 46.1667 59.7917 45.9375 58.625 45.9375C57.4583 45.9375 56.3542 46.1667 55.3125 46.625C54.3125 47.0417 53.4167 47.6458 52.625 48.4375C51.875 49.2292 51.2708 50.1458 50.8125 51.1875C50.3958 52.2292 50.1875 53.3333 50.1875 54.5V97H33.125V30.0625H37.25L41.875 35.1875C44.25 33.1875 46.8542 31.6458 49.6875 30.5625C52.5625 29.4375 55.5417 28.875 58.625 28.875C61.75 28.875 64.7917 29.4583 67.75 30.625C70.75 31.7917 73.375 33.8125 75.625 36.6875C76.6667 35.2708 77.8542 34.0625 79.1875 33.0625C80.5208 32.0625 81.9167 31.25 83.375 30.625C84.875 30 86.4167 29.5625 88 29.3125C89.5833 29.0208 91.1458 28.875 92.6875 28.875C96.2292 28.875 99.5417 29.5417 102.625 30.875C105.75 32.2083 108.458 34.0417 110.75 36.375C113.083 38.6667 114.917 41.375 116.25 44.5C117.583 47.625 118.25 50.9583 118.25 54.5V97Z" fill="white"/>
<path d="M215.875 97H198.875V54.5C198.875 53.3333 198.646 52.2292 198.188 51.1875C197.771 50.1458 197.167 49.2292 196.375 48.4375C195.583 47.6458 194.667 47.0417 193.625 46.625C192.583 46.1667 191.479 45.9375 190.312 45.9375C189.146 45.9375 188.042 46.1667 187 46.625C186 47.0417 185.104 47.6458 184.312 48.4375C183.562 49.2292 182.958 50.1458 182.5 51.1875C182.083 52.2292 181.875 53.3333 181.875 54.5V97H164.812V54.5C164.812 53.3333 164.583 52.2292 164.125 51.1875C163.708 50.1458 163.104 49.2292 162.312 48.4375C161.521 47.6458 160.604 47.0417 159.562 46.625C158.521 46.1667 157.417 45.9375 156.25 45.9375C155.083 45.9375 153.979 46.1667 152.938 46.625C151.938 47.0417 151.042 47.6458 150.25 48.4375C149.5 49.2292 148.896 50.1458 148.438 51.1875C148.021 52.2292 147.812 53.3333 147.812 54.5V97H130.75V30.0625H134.875L139.5 35.1875C141.875 33.1875 144.479 31.6458 147.312 30.5625C150.188 29.4375 153.167 28.875 156.25 28.875C159.375 28.875 162.417 29.4583 165.375 30.625C168.375 31.7917 171 33.8125 173.25 36.6875C174.292 35.2708 175.479 34.0625 176.812 33.0625C178.146 32.0625 179.542 31.25 181 30.625C182.5 30 184.042 29.5625 185.625 29.3125C187.208 29.0208 188.771 28.875 190.312 28.875C193.854 28.875 197.167 29.5417 200.25 30.875C203.375 32.2083 206.083 34.0417 208.375 36.375C210.708 38.6667 212.542 41.375 213.875 44.5C215.208 47.625 215.875 50.9583 215.875 54.5V97Z" fill="white"/>
<path d="M255 80.625C255.667 80.8333 256.333 80.9792 257 81.0625C257.667 81.1042 258.333 81.125 259 81.125C260.667 81.125 262.271 80.8958 263.812 80.4375C265.354 79.9792 266.792 79.3333 268.125 78.5C269.5 77.625 270.708 76.5833 271.75 75.375C272.833 74.125 273.708 72.75 274.375 71.25L286.875 83.8125C285.292 86.0625 283.458 88.0833 281.375 89.875C279.333 91.6667 277.104 93.1875 274.688 94.4375C272.312 95.6875 269.792 96.625 267.125 97.25C264.5 97.9167 261.792 98.25 259 98.25C254.292 98.25 249.854 97.375 245.688 95.625C241.562 93.875 237.938 91.4375 234.812 88.3125C231.729 85.1875 229.292 81.4792 227.5 77.1875C225.708 72.8542 224.812 68.1042 224.812 62.9375C224.812 57.6458 225.708 52.8125 227.5 48.4375C229.292 44.0625 231.729 40.3333 234.812 37.25C237.938 34.1667 241.562 31.7708 245.688 30.0625C249.854 28.3542 254.292 27.5 259 27.5C261.792 27.5 264.521 27.8333 267.188 28.5C269.854 29.1667 272.375 30.125 274.75 31.375C277.167 32.625 279.417 34.1667 281.5 36C283.583 37.7917 285.417 39.8125 287 42.0625L255 80.625ZM263.75 45.4375C262.958 45.1458 262.167 44.9583 261.375 44.875C260.625 44.7917 259.833 44.75 259 44.75C256.667 44.75 254.458 45.1875 252.375 46.0625C250.333 46.8958 248.542 48.1042 247 49.6875C245.5 51.2708 244.312 53.1875 243.438 55.4375C242.562 57.6458 242.125 60.1458 242.125 62.9375C242.125 63.5625 242.146 64.2708 242.188 65.0625C242.271 65.8542 242.375 66.6667 242.5 67.5C242.667 68.2917 242.854 69.0625 243.062 69.8125C243.271 70.5625 243.542 71.2292 243.875 71.8125L263.75 45.4375Z" fill="white"/>
<path d="M312.688 97H295.625V30.0625H299.75L305.375 38C308.125 35.5 311.25 33.5833 314.75 32.25C318.25 30.875 321.875 30.1875 325.625 30.1875H340.688V47.1875H325.625C323.833 47.1875 322.146 47.5208 320.562 48.1875C318.979 48.8542 317.604 49.7708 316.438 50.9375C315.271 52.1042 314.354 53.4792 313.688 55.0625C313.021 56.6458 312.688 58.3333 312.688 60.125V97Z" fill="white"/>
<path d="M384.625 97H345.625V80H384.625C385.792 80 386.792 79.5833 387.625 78.75C388.458 77.9167 388.875 76.9167 388.875 75.75C388.875 74.5417 388.458 73.75 387.625 73.375C386.792 73 385.792 72.8125 384.625 72.8125H366.875C363.917 72.8125 361.146 72.25 358.562 71.125C355.979 70 353.729 68.4792 351.812 66.5625C349.896 64.6042 348.375 62.3333 347.25 59.75C346.167 57.1667 345.625 54.3958 345.625 51.4375C345.625 48.4792 346.167 45.7083 347.25 43.125C348.375 40.5417 349.896 38.2917 351.812 36.375C353.729 34.4583 355.979 32.9583 358.562 31.875C361.146 30.75 363.917 30.1875 366.875 30.1875H401.438V47.1875H366.875C365.708 47.1875 364.708 47.6042 363.875 48.4375C363.042 49.2708 362.625 50.2708 362.625 51.4375C362.625 52.6458 363.042 53.6875 363.875 54.5625C364.708 55.3958 365.708 55.8125 366.875 55.8125H384.625C387.542 55.8125 390.292 56.3125 392.875 57.3125C395.458 58.2708 397.708 59.625 399.625 61.375C401.542 63.125 403.062 65.2292 404.188 67.6875C405.312 70.1458 405.875 72.8333 405.875 75.75C405.875 78.7083 405.312 81.4792 404.188 84.0625C403.062 86.6042 401.542 88.8542 399.625 90.8125C397.708 92.7292 395.458 94.25 392.875 95.375C390.292 96.4583 387.542 97 384.625 97Z" fill="white"/>
<path d="M435.125 11.875C435.125 13.4583 434.812 14.9375 434.188 16.3125C433.604 17.6875 432.792 18.8958 431.75 19.9375C430.708 20.9375 429.479 21.75 428.062 22.375C426.688 22.9583 425.208 23.25 423.625 23.25C422.042 23.25 420.542 22.9583 419.125 22.375C417.75 21.75 416.542 20.9375 415.5 19.9375C414.5 18.8958 413.688 17.6875 413.062 16.3125C412.479 14.9375 412.188 13.4583 412.188 11.875C412.188 10.3333 412.479 8.875 413.062 7.5C413.688 6.08333 414.5 4.875 415.5 3.875C416.542 2.83333 417.75 2.02083 419.125 1.4375C420.542 0.8125 422.042 0.5 423.625 0.5C425.208 0.5 426.688 0.8125 428.062 1.4375C429.479 2.02083 430.708 2.83333 431.75 3.875C432.792 4.875 433.604 6.08333 434.188 7.5C434.812 8.875 435.125 10.3333 435.125 11.875ZM432.188 97H415V30.0625H432.188V97Z" fill="white"/>
<path d="M464.25 97L438.75 30.0625H458.188L472.812 71.8125L487.375 30.0625H506.875L481.375 97H464.25Z" fill="white"/>
<path d="M538 80.625C538.667 80.8333 539.333 80.9792 540 81.0625C540.667 81.1042 541.333 81.125 542 81.125C543.667 81.125 545.271 80.8958 546.812 80.4375C548.354 79.9792 549.792 79.3333 551.125 78.5C552.5 77.625 553.708 76.5833 554.75 75.375C555.833 74.125 556.708 72.75 557.375 71.25L569.875 83.8125C568.292 86.0625 566.458 88.0833 564.375 89.875C562.333 91.6667 560.104 93.1875 557.688 94.4375C555.312 95.6875 552.792 96.625 550.125 97.25C547.5 97.9167 544.792 98.25 542 98.25C537.292 98.25 532.854 97.375 528.688 95.625C524.562 93.875 520.938 91.4375 517.812 88.3125C514.729 85.1875 512.292 81.4792 510.5 77.1875C508.708 72.8542 507.812 68.1042 507.812 62.9375C507.812 57.6458 508.708 52.8125 510.5 48.4375C512.292 44.0625 514.729 40.3333 517.812 37.25C520.938 34.1667 524.562 31.7708 528.688 30.0625C532.854 28.3542 537.292 27.5 542 27.5C544.792 27.5 547.521 27.8333 550.188 28.5C552.854 29.1667 555.375 30.125 557.75 31.375C560.167 32.625 562.417 34.1667 564.5 36C566.583 37.7917 568.417 39.8125 570 42.0625L538 80.625ZM546.75 45.4375C545.958 45.1458 545.167 44.9583 544.375 44.875C543.625 44.7917 542.833 44.75 542 44.75C539.667 44.75 537.458 45.1875 535.375 46.0625C533.333 46.8958 531.542 48.1042 530 49.6875C528.5 51.2708 527.312 53.1875 526.438 55.4375C525.562 57.6458 525.125 60.1458 525.125 62.9375C525.125 63.5625 525.146 64.2708 525.188 65.0625C525.271 65.8542 525.375 66.6667 525.5 67.5C525.667 68.2917 525.854 69.0625 526.062 69.8125C526.271 70.5625 526.542 71.2292 526.875 71.8125L546.75 45.4375Z" fill="white"/>
<path d="M677.75 97H616.312V7.375H677.75V25.3125H634.25V43.25H663.688V61.1875H634.25V79.0625H677.75V97Z" fill="white"/>
<path d="M750.125 97H729.25L715.938 76.5L702.5 97H681.625L706.062 62.6875L681.625 29.6875H702.5L715.938 48.875L729.25 29.6875H750.125L725.625 62.6875L750.125 97Z" fill="white"/>
<path d="M773.438 122.5H756.25V30.0625H760.375L767.188 38.125C768.729 36.6667 770.417 35.2917 772.25 34C774.083 32.7083 775.979 31.6042 777.938 30.6875C779.938 29.7292 782 28.9792 784.125 28.4375C786.25 27.8958 788.396 27.625 790.562 27.625C795.271 27.625 799.688 28.4792 803.812 30.1875C807.979 31.8542 811.604 34.2292 814.688 37.3125C817.812 40.3958 820.271 44.125 822.062 48.5C823.854 52.8333 824.75 57.6458 824.75 62.9375C824.75 68.4375 823.854 73.3958 822.062 77.8125C820.271 82.1875 817.812 85.9167 814.688 89C811.604 92.0417 807.979 94.375 803.812 96C799.688 97.625 795.271 98.4375 790.562 98.4375C789.062 98.4375 787.562 98.2708 786.062 97.9375C784.604 97.6042 783.146 97.1667 781.688 96.625C780.271 96.0417 778.854 95.3958 777.438 94.6875C776.062 93.9792 774.729 93.25 773.438 92.5V122.5ZM807.625 62.9375C807.625 60.1042 807.167 57.5625 806.25 55.3125C805.375 53.0625 804.167 51.1667 802.625 49.625C801.083 48.0417 799.271 46.8333 797.188 46C795.104 45.1667 792.896 44.75 790.562 44.75C788.229 44.75 786.021 45.1667 783.938 46C781.896 46.8333 780.104 48.0417 778.562 49.625C777.021 51.1667 775.792 53.0625 774.875 55.3125C774 57.5625 773.562 60.1042 773.562 62.9375C773.562 65.6458 774 68.125 774.875 70.375C775.792 72.625 777.021 74.5417 778.562 76.125C780.104 77.7083 781.896 78.9375 783.938 79.8125C786.021 80.6875 788.229 81.125 790.562 81.125C792.896 81.125 795.104 80.6875 797.188 79.8125C799.271 78.9375 801.083 77.7083 802.625 76.125C804.167 74.5417 805.375 72.625 806.25 70.375C807.167 68.125 807.625 65.6458 807.625 62.9375Z" fill="white"/>
<path d="M860.875 80.625C861.542 80.8333 862.208 80.9792 862.875 81.0625C863.542 81.1042 864.208 81.125 864.875 81.125C866.542 81.125 868.146 80.8958 869.688 80.4375C871.229 79.9792 872.667 79.3333 874 78.5C875.375 77.625 876.583 76.5833 877.625 75.375C878.708 74.125 879.583 72.75 880.25 71.25L892.75 83.8125C891.167 86.0625 889.333 88.0833 887.25 89.875C885.208 91.6667 882.979 93.1875 880.562 94.4375C878.188 95.6875 875.667 96.625 873 97.25C870.375 97.9167 867.667 98.25 864.875 98.25C860.167 98.25 855.729 97.375 851.562 95.625C847.438 93.875 843.812 91.4375 840.688 88.3125C837.604 85.1875 835.167 81.4792 833.375 77.1875C831.583 72.8542 830.688 68.1042 830.688 62.9375C830.688 57.6458 831.583 52.8125 833.375 48.4375C835.167 44.0625 837.604 40.3333 840.688 37.25C843.812 34.1667 847.438 31.7708 851.562 30.0625C855.729 28.3542 860.167 27.5 864.875 27.5C867.667 27.5 870.396 27.8333 873.062 28.5C875.729 29.1667 878.25 30.125 880.625 31.375C883.042 32.625 885.292 34.1667 887.375 36C889.458 37.7917 891.292 39.8125 892.875 42.0625L860.875 80.625ZM869.625 45.4375C868.833 45.1458 868.042 44.9583 867.25 44.875C866.5 44.7917 865.708 44.75 864.875 44.75C862.542 44.75 860.333 45.1875 858.25 46.0625C856.208 46.8958 854.417 48.1042 852.875 49.6875C851.375 51.2708 850.188 53.1875 849.312 55.4375C848.438 57.6458 848 60.1458 848 62.9375C848 63.5625 848.021 64.2708 848.062 65.0625C848.146 65.8542 848.25 66.6667 848.375 67.5C848.542 68.2917 848.729 69.0625 848.938 69.8125C849.146 70.5625 849.417 71.2292 849.75 71.8125L869.625 45.4375Z" fill="white"/>
<path d="M918.562 97H901.5V30.0625H905.625L911.25 38C914 35.5 917.125 33.5833 920.625 32.25C924.125 30.875 927.75 30.1875 931.5 30.1875H946.562V47.1875H931.5C929.708 47.1875 928.021 47.5208 926.438 48.1875C924.854 48.8542 923.479 49.7708 922.312 50.9375C921.146 52.1042 920.229 53.4792 919.562 55.0625C918.896 56.6458 918.562 58.3333 918.562 60.125V97Z" fill="white"/>
<path d="M974.625 11.875C974.625 13.4583 974.312 14.9375 973.688 16.3125C973.104 17.6875 972.292 18.8958 971.25 19.9375C970.208 20.9375 968.979 21.75 967.562 22.375C966.188 22.9583 964.708 23.25 963.125 23.25C961.542 23.25 960.042 22.9583 958.625 22.375C957.25 21.75 956.042 20.9375 955 19.9375C954 18.8958 953.188 17.6875 952.562 16.3125C951.979 14.9375 951.688 13.4583 951.688 11.875C951.688 10.3333 951.979 8.875 952.562 7.5C953.188 6.08333 954 4.875 955 3.875C956.042 2.83333 957.25 2.02083 958.625 1.4375C960.042 0.8125 961.542 0.5 963.125 0.5C964.708 0.5 966.188 0.8125 967.562 1.4375C968.979 2.02083 970.208 2.83333 971.25 3.875C972.292 4.875 973.104 6.08333 973.688 7.5C974.312 8.875 974.625 10.3333 974.625 11.875ZM971.688 97H954.5V30.0625H971.688V97Z" fill="white"/>
<path d="M1011.38 80.625C1012.04 80.8333 1012.71 80.9792 1013.38 81.0625C1014.04 81.1042 1014.71 81.125 1015.38 81.125C1017.04 81.125 1018.65 80.8958 1020.19 80.4375C1021.73 79.9792 1023.17 79.3333 1024.5 78.5C1025.88 77.625 1027.08 76.5833 1028.12 75.375C1029.21 74.125 1030.08 72.75 1030.75 71.25L1043.25 83.8125C1041.67 86.0625 1039.83 88.0833 1037.75 89.875C1035.71 91.6667 1033.48 93.1875 1031.06 94.4375C1028.69 95.6875 1026.17 96.625 1023.5 97.25C1020.88 97.9167 1018.17 98.25 1015.38 98.25C1010.67 98.25 1006.23 97.375 1002.06 95.625C997.938 93.875 994.312 91.4375 991.188 88.3125C988.104 85.1875 985.667 81.4792 983.875 77.1875C982.083 72.8542 981.188 68.1042 981.188 62.9375C981.188 57.6458 982.083 52.8125 983.875 48.4375C985.667 44.0625 988.104 40.3333 991.188 37.25C994.312 34.1667 997.938 31.7708 1002.06 30.0625C1006.23 28.3542 1010.67 27.5 1015.38 27.5C1018.17 27.5 1020.9 27.8333 1023.56 28.5C1026.23 29.1667 1028.75 30.125 1031.12 31.375C1033.54 32.625 1035.79 34.1667 1037.88 36C1039.96 37.7917 1041.79 39.8125 1043.38 42.0625L1011.38 80.625ZM1020.12 45.4375C1019.33 45.1458 1018.54 44.9583 1017.75 44.875C1017 44.7917 1016.21 44.75 1015.38 44.75C1013.04 44.75 1010.83 45.1875 1008.75 46.0625C1006.71 46.8958 1004.92 48.1042 1003.38 49.6875C1001.88 51.2708 1000.69 53.1875 999.812 55.4375C998.938 57.6458 998.5 60.1458 998.5 62.9375C998.5 63.5625 998.521 64.2708 998.562 65.0625C998.646 65.8542 998.75 66.6667 998.875 67.5C999.042 68.2917 999.229 69.0625 999.438 69.8125C999.646 70.5625 999.917 71.2292 1000.25 71.8125L1020.12 45.4375Z" fill="white"/>
<path d="M1069.06 97H1052V30.0625H1056.12L1061.75 36.5625C1064.5 34.0625 1067.6 32.1458 1071.06 30.8125C1074.56 29.4375 1078.21 28.75 1082 28.75C1086.08 28.75 1089.94 29.5417 1093.56 31.125C1097.19 32.6667 1100.35 34.8125 1103.06 37.5625C1105.77 40.2708 1107.9 43.4583 1109.44 47.125C1111.02 50.75 1111.81 54.625 1111.81 58.75V97H1094.75V58.75C1094.75 57 1094.42 55.3542 1093.75 53.8125C1093.08 52.2292 1092.17 50.8542 1091 49.6875C1089.83 48.5208 1088.48 47.6042 1086.94 46.9375C1085.4 46.2708 1083.75 45.9375 1082 45.9375C1080.21 45.9375 1078.52 46.2708 1076.94 46.9375C1075.35 47.6042 1073.98 48.5208 1072.81 49.6875C1071.65 50.8542 1070.73 52.2292 1070.06 53.8125C1069.4 55.3542 1069.06 57 1069.06 58.75V97Z" fill="white"/>
<path d="M1182.5 43.375L1170 55.9375C1169.38 54.1875 1168.52 52.625 1167.44 51.25C1166.35 49.8333 1165.12 48.6458 1163.75 47.6875C1162.42 46.7292 1160.96 46 1159.38 45.5C1157.79 45 1156.17 44.75 1154.5 44.75C1152.17 44.75 1149.96 45.2292 1147.88 46.1875C1145.83 47.1458 1144.04 48.5 1142.5 50.25C1141 51.9583 1139.81 54 1138.94 56.375C1138.06 58.75 1137.62 61.375 1137.62 64.25C1137.62 66.5833 1138.06 68.7708 1138.94 70.8125C1139.81 72.8542 1141 74.6458 1142.5 76.1875C1144.04 77.7292 1145.83 78.9375 1147.88 79.8125C1149.96 80.6875 1152.17 81.125 1154.5 81.125C1156.17 81.125 1157.77 80.8958 1159.31 80.4375C1160.85 79.9792 1162.29 79.3333 1163.62 78.5C1165 77.625 1166.21 76.5833 1167.25 75.375C1168.33 74.125 1169.21 72.75 1169.88 71.25L1182.38 83.8125C1180.79 86.0625 1178.96 88.0833 1176.88 89.875C1174.83 91.6667 1172.6 93.1875 1170.19 94.4375C1167.81 95.6875 1165.29 96.625 1162.62 97.25C1160 97.9167 1157.29 98.25 1154.5 98.25C1149.79 98.25 1145.35 97.375 1141.19 95.625C1137.06 93.8333 1133.44 91.3958 1130.31 88.3125C1127.23 85.2292 1124.79 81.625 1123 77.5C1121.21 73.375 1120.31 68.9583 1120.31 64.25C1120.31 59.125 1121.21 54.3333 1123 49.875C1124.79 45.4167 1127.23 41.5417 1130.31 38.25C1133.44 34.9167 1137.06 32.2917 1141.19 30.375C1145.35 28.4583 1149.79 27.5 1154.5 27.5C1157.29 27.5 1160.02 27.8542 1162.69 28.5625C1165.4 29.2708 1167.96 30.3125 1170.38 31.6875C1172.83 33.0208 1175.08 34.6667 1177.12 36.625C1179.21 38.5833 1181 40.8333 1182.5 43.375Z" fill="white"/>
<path d="M1216.5 80.625C1217.17 80.8333 1217.83 80.9792 1218.5 81.0625C1219.17 81.1042 1219.83 81.125 1220.5 81.125C1222.17 81.125 1223.77 80.8958 1225.31 80.4375C1226.85 79.9792 1228.29 79.3333 1229.62 78.5C1231 77.625 1232.21 76.5833 1233.25 75.375C1234.33 74.125 1235.21 72.75 1235.88 71.25L1248.38 83.8125C1246.79 86.0625 1244.96 88.0833 1242.88 89.875C1240.83 91.6667 1238.6 93.1875 1236.19 94.4375C1233.81 95.6875 1231.29 96.625 1228.62 97.25C1226 97.9167 1223.29 98.25 1220.5 98.25C1215.79 98.25 1211.35 97.375 1207.19 95.625C1203.06 93.875 1199.44 91.4375 1196.31 88.3125C1193.23 85.1875 1190.79 81.4792 1189 77.1875C1187.21 72.8542 1186.31 68.1042 1186.31 62.9375C1186.31 57.6458 1187.21 52.8125 1189 48.4375C1190.79 44.0625 1193.23 40.3333 1196.31 37.25C1199.44 34.1667 1203.06 31.7708 1207.19 30.0625C1211.35 28.3542 1215.79 27.5 1220.5 27.5C1223.29 27.5 1226.02 27.8333 1228.69 28.5C1231.35 29.1667 1233.88 30.125 1236.25 31.375C1238.67 32.625 1240.92 34.1667 1243 36C1245.08 37.7917 1246.92 39.8125 1248.5 42.0625L1216.5 80.625ZM1225.25 45.4375C1224.46 45.1458 1223.67 44.9583 1222.88 44.875C1222.12 44.7917 1221.33 44.75 1220.5 44.75C1218.17 44.75 1215.96 45.1875 1213.88 46.0625C1211.83 46.8958 1210.04 48.1042 1208.5 49.6875C1207 51.2708 1205.81 53.1875 1204.94 55.4375C1204.06 57.6458 1203.62 60.1458 1203.62 62.9375C1203.62 63.5625 1203.65 64.2708 1203.69 65.0625C1203.77 65.8542 1203.88 66.6667 1204 67.5C1204.17 68.2917 1204.35 69.0625 1204.56 69.8125C1204.77 70.5625 1205.04 71.2292 1205.38 71.8125L1225.25 45.4375Z" fill="white"/>
</svg>
