<svg width="1447" height="1389" viewBox="0 0 1447 1389" fill="none" xmlns="http://www.w3.org/2000/svg">
<path d="M633.595 62.9544C676.892 126.116 770.108 126.116 813.405 62.9545L823.636 48.0298C885.083 -41.6102 1025.51 4.03689 1022.5 112.674L1022 130.812C1019.88 207.372 1095.3 262.186 1167.47 236.53L1184.43 230.499C1286.84 194.092 1373.62 313.577 1307.31 399.697L1296.28 414.022C1249.55 474.724 1278.36 563.427 1351.85 585.075L1368.6 590.008C1472.9 620.735 1472.85 768.494 1368.52 799.146L1352 804C1278.47 825.605 1249.6 914.347 1296.36 975.075L1307.31 989.303C1373.62 1075.42 1286.84 1194.91 1184.43 1158.5L1167.47 1152.47C1095.3 1126.81 1019.88 1181.63 1022 1258.19L1022.5 1276.33C1025.51 1384.96 885.083 1430.61 823.636 1340.97L813.405 1326.05C770.108 1262.88 676.892 1262.88 633.595 1326.05L623.364 1340.97C561.917 1430.61 421.495 1384.96 424.501 1276.33L425.003 1258.19C427.122 1181.63 351.698 1126.81 279.533 1152.47L262.568 1158.5C160.16 1194.91 73.3839 1075.42 139.688 989.303L150.643 975.075C197.398 914.347 168.534 825.605 95.0009 804L78.4777 799.146C-25.8486 768.494 -25.9017 620.735 78.4025 590.008L95.1508 585.075C168.637 563.427 197.452 474.724 150.717 414.022L139.689 399.697C73.3841 313.577 160.16 194.092 262.568 230.499L279.533 236.53C351.698 262.186 427.122 207.372 425.003 130.812L424.501 112.674C421.495 4.03691 561.917 -41.6102 623.364 48.0298L633.595 62.9544Z" fill="#FFCC00"/>
</svg>
